# xmcd
#
# Track frame offsets: 
#        150
#        20597
#        36610
#        54212
#        73250
#        96322
#        118375
#        135375
#        150602
#        164317
#        181202
#        199807
#        216980
#        236375
#        258215
#        273680
#        294535
#
# Disc length: 4163 seconds
#
# Revision: 3
# Processed by: cddbd v1.5.1PL0 Copyright (c) Steve Scherf et al.
# Submitted via: ExactAudioCopy v0.90b4
#
DISCID=04104111
DTITLE=Various Artist - X-Mix Radioactive Series - Issue 6
DYEAR=1996
DGENRE=Pop
TTITLE0=Fugees, The - Killing Me Softly (X-Mix Re-Edit)
TTITLE1=Jars Of Clay - Flood (Album Version)
TTITLE2=Rhythmcentric - You Don't Have To Worry (X-Mix Radio Mix)
TTITLE3=Busta Rhymes - Woo-Hah!! (Radio Edit)
TTITLE4=Oasis - Champagne Supernova (Radio Edit)
TTITLE5=Planet Soul - Feel The Music (X-Mix Radio Edit)
TTITLE6=Bone Thugs-N-Harmony - Tha Crossroads (D.J. Uneek's Mo Thug Re
TTITLE6=mix)
TTITLE7=Stone Temple Pilots - Big Bang Baby (Album Version)
TTITLE8=Artie The One Man Party - Esa Nena Linda (X-Mix Re-Edit)
TTITLE9=Xscape - Can't Hang (Radio LP Version)
TTITLE10=Junior M.A.F.I.A. - Get Money (Super Clean Radio Edit)
TTITLE11=Gloria Estefan - Reach (X-Mix Re-Edit)
TTITLE12=Intrigue - Dance With Me (Album Version)
TTITLE13=Kris Kross - Live And Die For Hip Hop (Radio Extended Clean V
TTITLE13=ersion)
TTITLE14=Funzone - Higher (Radio Mix With Rap)
TTITLE15=Michael Jackson - They Don't Care About Us (Charles' Full Joi
TTITLE15=nt Mix)
TTITLE16=N-Joi - The New Anthem (X-Mix Radio Remix)
EXTD=
EXTT0=
EXTT1=
EXTT2=
EXTT3=
EXTT4=
EXTT5=
EXTT6=
EXTT7=
EXTT8=
EXTT9=
EXTT10=
EXTT11=
EXTT12=
EXTT13=
EXTT14=
EXTT15=
EXTT16=
PLAYORDER=
